HIERARCHY
ROOT Hips
{
 OFFSET 0.000000 0.000000 0.000000
 CHANNELS 6 Xposition Yposition Zposition Yrotation Xrotation Zrotation
 JOINT Chest
 {
  OFFSET 0.000000 9.588913 -0.003946
  CHANNELS 3 Yrotation Xrotation Zrotation
  JOINT Chest2
  {
   OFFSET 0.000000 9.541882 0.008053
   CHANNELS 3 Yrotation Xrotation Zrotation
   JOINT Chest3
   {
    OFFSET 0.000000 9.501360 0.000000
    CHANNELS 3 Yrotation Xrotation Zrotation
    JOINT Chest4
    {
     OFFSET 0.000000 9.491660 0.000000
     CHANNELS 3 Yrotation Xrotation Zrotation
     JOINT Neck
     {
      OFFSET 0.000000 14.331917 0.000000
      CHANNELS 3 Yrotation Xrotation Zrotation
      JOINT Head
      {
       OFFSET 0.000000 8.884799 0.017034
       CHANNELS 3 Yrotation Xrotation Zrotation
       End Site
       {
        OFFSET 0.000000 16.896195 0.008993
       }
      }
     }
     JOINT RightCollar
     {
      OFFSET -2.923010 9.499495 0.000000
      CHANNELS 3 Yrotation Xrotation Zrotation
      JOINT RightShoulder
      {
       OFFSET -13.795216 0.000000 0.000000
       CHANNELS 3 Yrotation Xrotation Zrotation
       JOINT RightElbow
       {
        OFFSET -30.272209 0.000000 0.000000
        CHANNELS 3 Yrotation Xrotation Zrotation
        JOINT RightWrist
        {
         OFFSET -24.478199 0.000000 0.000000
         CHANNELS 3 Yrotation Xrotation Zrotation
         End Site
         {
          OFFSET -18.090752 0.000000 0.000000
         }
        }
       }
      }
     }
     JOINT LeftCollar
     {
      OFFSET 2.923010 9.499495 0.000000
      CHANNELS 3 Yrotation Xrotation Zrotation
      JOINT LeftShoulder
      {
       OFFSET 13.795216 0.000000 0.000000
       CHANNELS 3 Yrotation Xrotation Zrotation
       JOINT LeftElbow
       {
        OFFSET 30.272209 0.000000 0.000000
        CHANNELS 3 Yrotation Xrotation Zrotation
        JOINT LeftWrist
        {
         OFFSET 24.478199 0.000000 0.000000
         CHANNELS 3 Yrotation Xrotation Zrotation
         End Site
         {
          OFFSET 18.090752 0.000000 0.000000
         }
        }
       }
      }
     }
    }
   }
  }
 }
 JOINT RightHip
 {
  OFFSET -7.826875 0.019532 0.001973
  CHANNELS 3 Yrotation Xrotation Zrotation
  JOINT RightKnee
  {
   OFFSET 0.000000 -40.546152 -0.001885
   CHANNELS 3 Yrotation Xrotation Zrotation
   JOINT RightAnkle
   {
    OFFSET 0.000000 -39.417092 -0.003189
    CHANNELS 3 Yrotation Xrotation Zrotation
    JOINT RightToe
    {
     OFFSET 0.000000 -7.579396 17.243563
     CHANNELS 3 Yrotation Xrotation Zrotation
     End Site
     {
      OFFSET 0.000000 -1.500329 6.694466
     }
    }
   }
  }
 }
 JOINT LeftHip
 {
  OFFSET 7.826875 0.019532 0.001973
  CHANNELS 3 Yrotation Xrotation Zrotation
  JOINT LeftKnee
  {
   OFFSET 0.000000 -40.546152 -0.001885
   CHANNELS 3 Yrotation Xrotation Zrotation
   JOINT LeftAnkle
   {
    OFFSET 0.000000 -39.417092 -0.003189
    CHANNELS 3 Yrotation Xrotation Zrotation
    JOINT LeftToe
    {
     OFFSET 0.000000 -7.579396 17.243563
     CHANNELS 3 Yrotation Xrotation Zrotation
     End Site
     {
      OFFSET 0.000000 -1.500329 6.694466
     }
    }
   }
  }
 }
}
MOTION
Frames: 5
Frame Time: 0.008333
37.209584 74.919283 -68.187273 -27.893597 -15.586046 7.453757 -3.577904 16.169638 6.256613 -2.028496 9.392881 3.294599 -2.457883 11.757737 4.079179 -2.028436 9.392904 3.294584 -6.565498 16.958244 -9.610367 -5.002824 -7.460628 -9.087897 1.290200 -7.744973 -2.339725 0.362486 -21.776137 71.808438 10.775922 0.406499 1.008978 1.599309 -3.030644 -9.617526 -8.978832 -2.156929 -5.469637 4.287890 -20.924332 -84.957672 -7.453046 8.519507 0.043421 -5.942990 6.804419 0.409425 -14.661321 -31.117919 -13.772310 -11.019245 61.203156 -14.044280 -2.781644 -19.796057 1.739801 0.032944 0.699665 0.004884 -1.963448 -24.901540 4.510658 1.890467 60.342808 12.381054 8.630532 -15.802280 -18.129303 -0.408842 -1.411632 -0.037715
36.992374 75.644370 -68.183879 -27.686644 -15.246124 7.628089 -3.528053 15.861839 6.109397 -1.994332 9.262368 3.254188 -2.417090 11.594133 4.029755 -1.994274 9.262392 3.254175 -6.602124 16.944191 -9.547849 -5.056532 -7.479033 -9.007724 1.157747 -7.647170 -2.385589 0.149645 -21.517093 72.065426 10.831927 0.383866 1.106780 1.399036 -3.064638 -9.466852 -8.901722 -2.179257 -5.472462 4.159924 -20.513865 -85.055462 -7.350853 8.675344 0.039358 -5.867852 6.949182 0.269340 -15.037413 -30.465057 -13.760711 -10.476772 59.573441 -13.250461 -2.687614 -19.164715 1.476701 0.053953 0.625712 0.015209 -2.153891 -24.305008 4.462258 1.807566 58.688726 11.991777 8.440919 -15.464551 -17.877568 -0.270595 -1.136525 -0.119816
36.772266 76.362732 -68.174445 -27.472318 -14.895194 7.827972 -3.499259 15.529833 5.934010 -1.957173 9.132533 3.212047 -2.372560 11.431349 3.978224 -1.957117 9.132557 3.212035 -6.641951 16.934056 -9.491676 -5.112570 -7.492553 -8.934311 1.015212 -7.545746 -2.435657 -0.085790 -21.240819 72.333016 10.875284 0.373245 1.207572 1.236226 -3.121406 -9.359648 -8.830159 -2.185323 -5.475567 4.036482 -20.124927 -85.152717 -7.244344 8.826425 0.033658 -5.835535 7.106316 0.093136 -15.472001 -29.834905 -13.757272 -9.970691 57.916440 -12.526254 -2.565309 -18.552596 1.212844 0.065475 0.584257 0.020379 -2.443244 -23.725594 4.424507 1.708320 57.083658 11.486743 8.344974 -15.190337 -17.442701 -0.188972 -0.844542 -0.308176
36.553603 77.071368 -68.168022 -27.222812 -14.486645 8.032173 -3.506981 15.128901 5.745546 -1.917176 9.002498 3.168685 -2.324481 11.268293 3.925219 -1.917122 9.002523 3.168674 -6.681107 16.927735 -9.443840 -5.166188 -7.501305 -8.870754 0.869858 -7.447770 -2.482830 -0.327239 -20.936901 72.595013 10.905096 0.369045 1.303009 1.110614 -3.185351 -9.285558 -8.763492 -2.168464 -5.476858 3.924348 -19.768715 -85.254653 -7.126062 8.952765 0.020874 -5.811692 7.254408 -0.105619 -15.985977 -29.278951 -13.731983 -9.508773 56.245196 -11.876487 -2.414878 -17.951564 0.963175 0.062320 0.565143 0.012371 -2.859776 -23.233237 4.373437 1.730712 55.552846 10.987752 8.441493 -14.976173 -16.872983 -0.068439 -0.510396 -0.553619
36.333911 77.769964 -68.163398 -26.959381 -14.044826 8.226582 -3.531346 14.691285 5.559241 -1.874759 8.871489 3.125675 -2.273344 11.104007 3.872702 -1.874707 8.871513 3.125664 -6.714880 16.924563 -9.406316 -5.211694 -7.506064 -8.820293 0.722867 -7.363725 -2.524068 -0.553589 -20.592223 72.838990 10.922028 0.365506 1.387664 1.019072 -3.247845 -9.234719 -8.691124 -2.134682 -5.483407 3.829831 -19.437879 -85.361149 -6.997577 9.057346 -0.004275 -5.773404 7.412611 -0.311319 -16.551093 -28.769694 -13.667960 -9.082620 54.568782 -11.289272 -2.266018 -17.312692 0.730096 0.061186 0.520550 -0.003043 -3.356568 -22.808227 4.307297 1.946497 54.109589 10.596785 8.652281 -14.874656 -16.220160 0.084404 -0.121694 -0.801824
